HIERARCHY
ROOT Hips
{
	OFFSET 0.00000 0.00000 0.00000
	CHANNELS 6 Xposition Yposition Zposition Zrotation Yrotation Xrotation 
	JOINT LHipJoint
	{
		OFFSET 0 0 0
		CHANNELS 3 Zrotation Yrotation Xrotation
		JOINT LeftUpLeg
		{
			OFFSET 3.13874 -1.57224 1.49786
			CHANNELS 3 Zrotation Yrotation Xrotation
			JOINT LeftLeg
			{
				OFFSET 2.10955 -5.79594 0.00000
				CHANNELS 3 Zrotation Yrotation Xrotation
				JOINT LeftFoot
				{
					OFFSET 2.41843 -6.64458 0.00000
					CHANNELS 3 Zrotation Yrotation Xrotation
					JOINT LeftToeBase
					{
						OFFSET 0.04713 -0.12948 1.66229
						CHANNELS 3 Zrotation Yrotation Xrotation
						End Site
						{
							OFFSET 0.00000 -0.00000 0.85167
						}
					}
				}
			}
		}
	}
	JOINT RHipJoint
	{
		OFFSET 0 0 0
		CHANNELS 3 Zrotation Yrotation Xrotation
		JOINT RightUpLeg
		{
			OFFSET -3.13988 -1.57224 1.49786
			CHANNELS 3 Zrotation Yrotation Xrotation
			JOINT RightLeg
			{
				OFFSET -2.15006 -5.90725 0.00000
				CHANNELS 3 Zrotation Yrotation Xrotation
				JOINT RightFoot
				{
					OFFSET -2.34496 -6.44273 0.00000
					CHANNELS 3 Zrotation Yrotation Xrotation
					JOINT RightToeBase
					{
						OFFSET -0.08699 -0.23900 1.55223
						CHANNELS 3 Zrotation Yrotation Xrotation
						End Site
						{
							OFFSET -0.00000 -0.00000 0.80281
						}
					}
				}
			}
		}
	}
	JOINT LowerBack
	{
		OFFSET 0 0 0
		CHANNELS 3 Zrotation Yrotation Xrotation
		JOINT Spine
		{
			OFFSET 0.01292 1.96517 -0.16495
			CHANNELS 3 Zrotation Yrotation Xrotation
			JOINT Spine1
			{
				OFFSET 0.02122 1.88666 0.19706
				CHANNELS 3 Zrotation Yrotation Xrotation
				JOINT Neck
				{
					OFFSET 0 0 0
					CHANNELS 3 Zrotation Yrotation Xrotation
					JOINT Neck1
					{
						OFFSET -0.01683 1.81591 0.07903
						CHANNELS 3 Zrotation Yrotation Xrotation
						JOINT Head
						{
							OFFSET 0.00815 1.74013 -0.47700
							CHANNELS 3 Zrotation Yrotation Xrotation
							End Site
							{
								OFFSET -0.00204 1.83225 -0.16933
							}
						}
					}
				}
				JOINT LeftShoulder
				{
					OFFSET 0 0 0
					CHANNELS 3 Zrotation Yrotation Xrotation
					JOINT LeftArm
					{
						OFFSET 3.38482 1.41533 0.19802
						CHANNELS 3 Zrotation Yrotation Xrotation
						JOINT LeftForeArm
						{
							OFFSET 4.32712 -0.00000 0.00000
							CHANNELS 3 Zrotation Yrotation Xrotation
							JOINT LeftHand
							{
								OFFSET 3.28587 -0.00000 -0.00000
								CHANNELS 3 Zrotation Yrotation Xrotation
								JOINT LeftFingerBase
								{
									OFFSET 0 0 0
									CHANNELS 3 Zrotation Yrotation Xrotation
									JOINT LeftHandIndex1
									{
										OFFSET 0.43316 -0.00000 -0.00000
										CHANNELS 3 Zrotation Yrotation Xrotation
										End Site
										{
											OFFSET 0.34922 -0.00000 -0.00000
										}
									}
								}
								JOINT LThumb
								{
									OFFSET 0 0 0
									CHANNELS 3 Zrotation Yrotation Xrotation
									End Site
									{
										OFFSET 0.35456 -0.00000 0.35456
									}
								}
							}
						}
					}
				}
				JOINT RightShoulder
				{
					OFFSET 0 0 0
					CHANNELS 3 Zrotation Yrotation Xrotation
					JOINT RightArm
					{
						OFFSET -3.09725 1.62858 -0.14144
						CHANNELS 3 Zrotation Yrotation Xrotation
						JOINT RightForeArm
						{
							OFFSET -4.29104 -0.00000 0.00000
							CHANNELS 3 Zrotation Yrotation Xrotation
							JOINT RightHand
							{
								OFFSET -3.22720 -0.00000 -0.00000
								CHANNELS 3 Zrotation Yrotation Xrotation
								JOINT RightFingerBase
								{
									OFFSET 0 0 0
									CHANNELS 3 Zrotation Yrotation Xrotation
									JOINT RightHandIndex1
									{
										OFFSET -0.54362 -0.00000 -0.00000
										CHANNELS 3 Zrotation Yrotation Xrotation
										End Site
										{
											OFFSET -0.43828 -0.00000 -0.00000
										}
									}
								}
								JOINT RThumb
								{
									OFFSET 0 0 0
									CHANNELS 3 Zrotation Yrotation Xrotation
									End Site
									{
										OFFSET -0.44497 -0.00000 0.44497
									}
								}
							}
						}
					}
				}
			}
		}
	}
}
MOTION
Frames: 15
Frame Time: .0083333
36.0236 15.5434 7.5786 -364.4300 -24.6964 -352.1620 0.0000 0.0000 0.0000 -8.7442 -24.0330 -26.2100 1.3265 7.2938 20.5886 3.6562 -10.1515 -34.6656 5.2113 -13.6179 -41.7279 0.0000 0.0000 0.0000 44.2472 3.7247 1.7170 -0.0086 -0.5980 1.6433 -0.0904 3.5563 -5.5328 -5.1448 13.5451 -41.4447 -10.1076 -5.5324 26.1781 12.9021 -10.0922 -13.7763 36.6100 5.3319 -35.7278 -7.7152 7.1810 -10.0856 -7.4364 16.0091 46.1973 0.4157 3.4845 20.3283 -0.0000 0.0000 0.0000 -125.7066 41.3399 -27.2798 27.1860 -38.3560 -9.6143 -0.0000 0.0000 -2.1345 24.8712 23.8224 10.6052 -7.1250 0.0000 -0.0000 -4.7936 55.8659 -1.2801 -0.0000 0.0000 0.0000 36.4288 -9.7244 95.6439 -26.9352 38.1174 -9.4591 0.0000 -0.0000 -16.6363 -25.8047 -18.3426 8.6519 7.1250 -0.0000 -0.0000 2.3035 -50.1828 -0.2944
35.9871 15.5424 7.7767 -364.6270 -26.4822 -351.9020 0.0000 0.0000 0.0000 -7.0669 -28.4216 -24.9297 0.7527 5.5412 15.4588 3.7187 -9.5866 -35.0015 5.2715 -13.6832 -41.9828 0.0000 0.0000 0.0000 44.7014 5.9827 3.1804 -0.0189 -0.8865 2.4365 -0.1252 2.8944 -6.3071 -5.4306 13.8529 -42.6513 -10.1202 -5.3555 26.1000 13.1255 -9.7383 -13.5099 36.5915 5.2596 -35.1743 -7.8060 7.2017 -10.7086 -7.7804 16.2030 45.4505 0.3471 3.5306 20.0367 0.0000 -0.0000 0.0000 -125.7566 41.2683 -27.3915 26.8228 -38.0097 -9.3898 -0.0000 0.0000 -2.6796 24.3641 23.8500 10.3766 -7.1250 0.0000 -0.0000 -5.3447 55.7883 -1.4177 0.0000 -0.0000 0.0000 36.9666 -8.5479 95.8679 -26.7008 37.8924 -9.3148 0.0000 -0.0000 -16.5059 -25.9424 -18.6782 8.8554 7.1250 -0.0000 -0.0000 2.2387 -50.5697 -0.3074
35.9448 15.5389 7.9779 -364.8500 -28.3103 -351.5850 0.0000 0.0000 0.0000 -5.1742 -32.7559 -23.9323 0.4018 4.0697 11.2729 3.4565 -10.7876 -33.6446 4.9169 -13.2896 -40.4626 0.0000 0.0000 0.0000 44.7523 6.3312 4.2582 -0.0168 -0.8363 2.2984 -0.0926 3.3041 -5.5367 -5.8913 14.3222 -44.5438 -10.1709 -5.1413 25.9553 13.3442 -9.3496 -13.2501 36.5736 5.2113 -34.6184 -7.8009 7.2446 -11.2203 -8.1194 16.3857 44.7364 0.2600 3.5945 19.7541 -0.0000 0.0000 0.0000 -125.7744 41.2331 -27.5876 26.2751 -37.4791 -9.0545 -0.0000 0.0000 -2.7216 24.8283 24.0697 10.6858 -7.1250 0.0000 -0.0000 -4.9282 56.1174 -1.3462 -0.0000 0.0000 0.0000 37.4537 -7.5501 95.9458 -26.4408 37.6407 -9.1555 0.0000 -0.0000 -16.6961 -26.1637 -18.6789 8.9414 7.1250 -0.0000 -0.0000 2.0177 -50.6085 -0.2790
35.8957 15.5334 8.1835 -364.9870 -30.1894 -351.2630 0.0000 0.0000 0.0000 -3.3699 -36.6088 -23.5663 0.2170 2.9986 8.2749 3.2303 -11.5623 -32.4819 4.9813 -13.3627 -40.7418 0.0000 0.0000 0.0000 44.4426 5.8280 4.5762 -0.0242 -1.0038 2.7593 -0.0362 4.7093 -4.4536 -6.4004 14.8054 -46.5682 -10.2716 -4.9106 25.7292 13.5335 -8.9720 -13.0312 36.5510 5.1766 -34.0833 -7.9261 7.3140 -11.7743 -8.2568 16.6002 44.2209 0.2955 3.6557 19.5764 -0.0000 -0.0000 0.0000 -125.8701 41.2283 -28.0711 25.5797 -36.7907 -8.6347 -0.0000 0.0000 -2.0450 25.8531 24.4111 11.3243 -7.1250 0.0000 -0.0000 -3.9433 56.6996 -1.1321 -0.0000 -0.0000 0.0000 37.8586 -6.7424 95.9832 -26.1669 37.3730 -8.9888 0.0000 -0.0000 -16.9547 -26.2331 -18.6633 8.9613 7.1250 -0.0000 -0.0000 1.9450 -50.6036 -0.2687
35.8414 15.5241 8.3956 -365.1590 -31.9086 -350.8590 0.0000 0.0000 0.0000 -1.1987 -40.5584 -23.9529 0.1296 2.3209 6.3935 2.9480 -13.1045 -31.0576 4.9177 -13.2905 -40.4659 0.0000 0.0000 0.0000 44.1957 5.5566 4.9377 -0.0340 -1.1897 3.2708 0.0233 5.9535 -3.4781 -6.9134 15.2585 -48.5459 -10.2165 -4.7373 25.4449 13.7139 -8.6169 -12.8852 36.3881 5.1184 -33.6554 -8.2503 7.2865 -12.4362 -8.1644 16.6614 43.8370 0.4467 3.6378 19.4502 -0.0000 0.0000 0.0000 -125.9142 41.3980 -28.3051 24.9202 -36.1224 -8.2428 -0.0000 0.0000 -1.7104 26.4508 24.9594 11.8563 -7.1250 0.0000 -0.0000 -3.4846 57.4142 -1.0603 -0.0000 0.0000 0.0000 38.1685 -6.2723 95.8918 -25.9622 37.1713 -8.8648 0.0000 -0.0000 -17.1312 -26.0705 -18.5106 8.8292 7.1250 -0.0000 -0.0000 2.0748 -50.4100 -0.2767
35.7728 15.5133 8.6121 -365.3870 -33.5639 -350.4490 0.0000 0.0000 0.0000 0.5834 -43.4763 -24.8042 0.1080 2.1194 5.8359 2.4311 -14.8422 -28.4195 5.5217 -13.9483 -43.0307 0.0000 0.0000 0.0000 44.1129 5.6980 5.4692 -0.0502 -1.4453 3.9750 0.0666 6.7761 -2.8584 -6.9572 15.2957 -48.7122 -10.1683 -4.5777 25.1233 13.8895 -8.2884 -12.7509 36.2069 5.0335 -33.1858 -8.4451 7.2277 -12.9458 -8.1365 16.6243 43.4033 0.5203 3.6085 19.2726 -0.0000 0.0000 0.0000 -125.9242 41.4729 -28.8291 24.1955 -35.3704 -7.8195 -0.0000 0.0000 -1.2194 26.4074 25.5224 12.0765 -7.1250 0.0000 -0.0000 -3.7418 58.0019 -1.1916 -0.0000 0.0000 0.0000 38.4510 -6.1262 95.2287 -25.7852 36.9958 -8.7581 0.0000 -0.0000 -17.0394 -25.5529 -17.8755 8.3489 7.1250 -0.0000 -0.0000 2.4544 -49.6352 -0.2806
35.6901 15.5016 8.8316 -365.5400 -35.1879 -350.1200 0.0000 0.0000 0.0000 1.2006 -44.7040 -25.7649 0.1207 2.2397 6.1687 1.6991 -16.0331 -24.3543 5.9971 -14.4255 -44.9699 0.0000 0.0000 0.0000 44.0408 6.0822 6.1786 -0.0694 -1.6992 4.6751 0.0797 7.0286 -2.6988 -6.8367 15.1929 -48.2542 -10.2356 -4.4304 24.7555 14.0294 -8.0335 -12.6176 36.0108 4.8777 -32.5640 -8.3967 7.1563 -13.3833 -8.2651 16.5419 42.9400 0.4693 3.5852 19.1128 -0.0000 0.0000 0.0000 -125.7595 41.2904 -29.7120 23.2830 -34.3968 -7.2975 -0.0000 0.0000 -0.0977 26.4479 25.8936 12.2563 -7.1250 0.0000 -0.0000 -3.8400 58.4043 -1.2601 -0.0000 0.0000 0.0000 38.6293 -5.9973 94.5134 -25.7288 36.9397 -8.7242 0.0000 -0.0000 -17.2694 -25.4937 -17.4644 8.1441 7.1250 -0.0000 -0.0000 2.4285 -49.1806 -0.2505
35.6001 15.4905 9.0549 -365.7300 -36.7148 -349.7750 0.0000 0.0000 0.0000 0.8229 -44.4899 -26.7075 0.1663 2.6271 7.2421 0.8764 -16.5040 -19.0047 5.6549 -14.0854 -43.5805 0.0000 0.0000 0.0000 43.9518 6.2845 6.8432 -0.0887 -1.9208 5.2869 0.0836 7.2038 -2.7728 -6.8440 15.1991 -48.2819 -10.1973 -4.3405 24.3766 14.1529 -7.8203 -12.5127 35.6658 4.6586 -31.9430 -8.2587 6.9683 -13.8840 -8.5345 16.3068 42.4218 0.3131 3.4943 18.9710 -0.0000 0.0000 0.0000 -125.4145 41.1472 -30.2589 22.3426 -33.3620 -6.7733 -0.0000 -0.0000 0.9281 27.0695 26.1960 12.7132 -7.1250 0.0000 -0.0000 -3.2572 58.8707 -1.1050 -0.0000 0.0000 0.0000 38.8296 -5.8987 94.0820 -25.6805 36.8915 -8.6951 0.0000 -0.0000 -17.7641 -26.0609 -17.6519 8.4352 7.1250 -0.0000 -0.0000 1.9091 -49.4760 -0.2108
35.5037 15.4833 9.2805 -365.9890 -38.1723 -349.4290 0.0000 0.0000 0.0000 -0.1641 -43.7185 -27.3889 0.2532 3.2374 8.9404 0.1778 -16.1511 -13.0968 4.9018 -13.2723 -40.3966 0.0000 0.0000 0.0000 43.9170 6.4203 7.5405 -0.1118 -2.1555 5.9355 0.0890 7.3322 -2.7422 -6.6465 15.0268 -47.5242 -10.0763 -4.2606 24.0591 14.2590 -7.5965 -12.4131 35.2586 4.4644 -31.4360 -8.1215 6.6627 -14.3880 -8.7790 15.8784 41.9546 0.1301 3.3225 18.8542 0.0000 -0.0000 0.0000 -125.0974 41.1618 -30.7319 21.5158 -32.4255 -6.3242 -0.0000 -0.0000 1.6668 27.9049 26.5928 13.3366 -7.1250 0.0000 -0.0000 -2.4562 59.4932 -0.8697 0.0000 -0.0000 0.0000 39.2290 -6.0057 93.3434 -25.4083 36.6184 -8.5323 0.0000 -0.0000 -17.8542 -26.3141 -18.0405 8.7074 7.1250 -0.0000 -0.0000 1.7360 -49.9406 -0.2115
35.3996 15.4773 9.5058 -366.3260 -39.6527 -349.0060 0.0000 0.0000 0.0000 -1.2330 -43.0809 -27.7870 0.3886 4.0031 11.0854 -0.2342 -15.0676 -7.7561 4.0648 -12.2461 -36.6082 0.0000 0.0000 0.0000 43.9593 6.6434 8.2576 -0.1401 -2.4124 6.6467 0.0997 7.3937 -2.4583 -6.1572 14.5790 -45.6096 -9.9583 -4.1496 23.7258 14.3614 -7.3332 -12.3124 34.8602 4.3124 -30.9727 -8.1297 6.4878 -14.8277 -8.5946 15.5538 41.7259 0.1827 3.2165 18.7793 -0.0000 0.0000 0.0000 -124.7697 41.2435 -31.1531 20.7938 -31.5869 -5.9416 -0.0000 -0.0000 2.1503 28.7229 27.2084 14.0666 -7.1250 0.0000 -0.0000 -1.7431 60.3524 -0.6528 -0.0000 0.0000 0.0000 39.4971 -6.2324 92.4974 -25.1636 36.3708 -8.3867 0.0000 -0.0000 -17.9943 -26.3760 -18.4591 8.9232 7.1250 -0.0000 -0.0000 1.7594 -50.4065 -0.2345
35.2862 15.4713 9.7354 -366.7450 -41.1392 -348.5130 0.0000 0.0000 0.0000 -1.9980 -43.0584 -27.7830 0.5415 4.7149 13.0971 -0.3811 -13.1721 -3.1284 3.6172 -11.6327 -34.4448 0.0000 0.0000 0.0000 44.0532 6.9149 9.0798 -0.1654 -2.6205 7.2240 0.1096 7.3728 -2.0765 -5.3902 13.8102 -42.4824 -9.8060 -4.0339 23.3651 14.4560 -7.0571 -12.2378 34.4394 4.1830 -30.5677 -8.1457 6.3832 -15.0561 -8.3340 15.2739 41.5190 0.2697 3.1488 18.6486 0.0000 -0.0000 0.0000 -124.4158 41.4157 -31.3059 20.1361 -30.8060 -5.6009 -0.0000 -0.0000 2.2955 29.1237 27.5889 14.4680 -7.1250 0.0000 -0.0000 -1.4185 60.8607 -0.5483 0.0000 -0.0000 0.0000 39.6029 -6.6380 91.7249 -24.9719 36.1753 -8.2733 0.0000 -0.0000 -18.2973 -26.3289 -18.6234 8.9803 7.1250 -0.0000 -0.0000 1.8407 -50.5768 -0.2530
35.1645 15.4642 9.9702 -367.2160 -42.6827 -347.9590 0.0000 0.0000 0.0000 -2.4333 -43.4386 -27.4254 0.6737 5.2486 14.6189 -0.2798 -9.6486 0.9133 1.6867 -8.1806 -23.2639 0.0000 0.0000 0.0000 44.0372 7.1242 9.6345 -0.2112 -2.9587 8.1639 0.1285 7.5125 -1.5465 -4.6179 12.9401 -39.1447 -9.4837 -3.9618 22.9718 14.5378 -6.7860 -12.2279 33.8547 4.0307 -30.2576 -8.2934 6.3149 -15.1751 -7.9631 15.0360 41.3904 0.4282 3.0890 18.5111 -0.0000 0.0000 0.0000 -124.1270 41.6000 -31.7450 19.4215 -29.9390 -5.2395 -0.0000 -0.0000 2.6606 29.1863 27.7748 14.5898 -7.1250 0.0000 -0.0000 -1.4182 61.0756 -0.5554 -0.0000 0.0000 0.0000 39.1806 -7.4569 91.2000 -25.7011 36.9120 -8.7075 0.0000 -0.0000 -18.6425 -26.2805 -18.9822 9.1251 7.1250 -0.0000 -0.0000 1.9660 -50.9579 -0.2887
35.0376 15.4582 10.2096 -367.8450 -44.2507 -347.2180 0.0000 0.0000 0.0000 -2.5473 -43.7728 -27.0775 0.7940 5.6878 15.8812 -0.1423 -6.9388 0.5054 1.9214 -8.7005 -24.8628 0.0000 0.0000 0.0000 43.9923 7.3218 9.9753 -0.2747 -3.3712 9.3138 0.1527 7.6874 -0.7812 -3.8435 11.9492 -35.5526 -9.1359 -3.8811 22.4521 14.6588 -6.4885 -12.2228 33.2740 3.8664 -29.8564 -8.2831 6.2442 -15.2709 -7.6569 14.7790 41.3630 0.5233 3.0264 18.4573 0.0000 0.0000 0.0000 -123.6686 41.5993 -32.6297 18.5513 -28.8573 -4.8124 -0.0000 -0.0000 3.7716 27.3780 26.9517 13.2092 -7.1250 0.0000 -0.0000 -3.2075 59.7467 -1.1554 0.0000 0.0000 0.0000 39.1289 -8.0743 90.5336 -25.6078 36.8188 -8.6515 0.0000 -0.0000 -18.9038 -26.2772 -18.5029 8.9052 7.1250 -0.0000 -0.0000 1.8671 -50.4370 -0.2503
34.8983 15.4445 10.4443 -368.3150 -45.8952 -346.2710 0.0000 0.0000 0.0000 -2.3188 -43.7841 -27.3378 0.9247 6.1263 17.1513 -0.0874 -6.6143 -1.8954 1.5213 -7.7883 -22.0730 0.0000 0.0000 0.0000 43.6975 7.5264 9.8830 -0.3578 -3.8427 10.6346 0.1741 7.7620 0.2640 -4.9809 13.3623 -40.7402 -9.0435 -3.7667 21.5502 14.7510 -6.2552 -12.3330 32.8318 3.6924 -29.2653 -7.6257 6.1570 -14.0741 -8.9553 14.4364 39.4409 -0.2400 3.0425 17.2540 0.0000 -0.0000 0.0000 -122.9758 41.6156 -33.3628 17.6524 -27.7097 -4.3864 -0.0000 -0.0000 5.0680 23.8620 24.7092 10.4760 -7.1250 0.0000 -0.0000 -6.2091 56.5814 -1.7676 0.0000 -0.0000 0.0000 39.3272 -8.6846 89.6369 -24.9766 36.1801 -8.2761 0.0000 -0.0000 -18.8821 -26.4034 -17.3463 8.4200 7.1250 -0.0000 -0.0000 1.5138 -49.1989 -0.1568
34.7442 15.4344 10.6729 -368.3040 -47.5966 -345.6800 0.0000 0.0000 0.0000 -2.7527 -42.9285 -27.5297 1.0634 6.5560 18.4066 -0.0395 -7.9057 -4.6583 1.7978 -8.4316 -24.0329 0.0000 0.0000 0.0000 42.8907 7.3656 9.5240 -0.4658 -4.3775 12.1413 0.1854 7.6818 1.6921 -5.0690 13.4610 -41.1197 -9.3702 -3.6012 20.6342 14.6766 -6.1360 -12.4945 32.5380 3.5607 -28.6711 -6.9808 6.0236 -13.3303 -9.7175 14.0363 38.4695 -0.7541 2.9834 16.6661 -0.0000 0.0000 0.0000 -122.1559 41.6312 -33.7118 16.8586 -26.6710 -4.0237 -0.0000 -0.0000 6.1260 22.5482 23.6462 9.4548 -7.1250 0.0000 -0.0000 -7.1863 55.2012 -1.8068 -0.0000 0.0000 0.0000 39.3368 -9.5258 88.6706 -24.5596 35.7504 -8.0312 0.0000 -0.0000 -19.0845 -23.1941 -16.8524 7.0810 7.1250 -0.0000 -0.0000 4.5274 -48.1673 -0.3544
